<svg viewBox="0 0 72 72" xmlns="http://www.w3.org/2000/svg"><path d="m40.701 37.6519 2.598 1.5-1 1.7321-2.598-1.5zm-.3651-2.3662a1 1 0 0 0 -.867.5l-2 3.4641a1 1 0 0 0 .366 1.366l4.33 2.5a.9994.9994 0 0 0 1.366-.366l2-3.4641a1 1 0 0 0 -.366-1.366l-4.33-2.5a.9944.9944 0 0 0 -.499-.1342z"/><path d="m30.4974 29.2674a1.0015 1.0015 0 1 1 -.4974.1345.9926.9926 0 0 1 .4974-.1345m0-2a3 3 0 1 0 2.6009 1.5005 2.987 2.987 0 0 0 -2.6009-1.5005z"/><path d="m58.4972 42.2681a1.0008 1.0008 0 1 1 -.4972.1345.9922.9922 0 0 1 .4974-.1345m0-2a3 3 0 1 0 2.6009 1.5005 2.9869 2.9869 0 0 0 -2.6009-1.5005z"/><path d="m33.299 47.6519 1 1.7321-2.598 1.5-1-1.7321zm.3651-2.3662a.9946.9946 0 0 0 -.499.1342l-4.33 2.5a1 1 0 0 0 -.366 1.366l2 3.4641a.9994.9994 0 0 0 1.366.366l4.33-2.5a1 1 0 0 0 .366-1.366l-2-3.4641a1 1 0 0 0 -.867-.5z"/><path d="m15 38.5v3h-2v-3zm1-2h-4a1 1 0 0 0 -1 1v5a1 1 0 0 0 1 1h4a1 1 0 0 0 1-1v-5a1 1 0 0 0 -1-1z"/><rect fill="#a57939" height="34" rx="3" width="54" x="9" y="22"/><rect fill="#6a462f" height="38" rx="1" width="4" x="19" y="20"/><rect fill="#6a462f" height="38" rx="1" width="4" x="49" y="20"/><rect fill="#e67a94" height="6" rx="1" transform="matrix(.866 .5 -.5 .866 25.194 -15.4891)" width="7" x="38" y="36.2679"/><circle cx="30.5" cy="30.2679" fill="#fcea2b" r="3"/><circle cx="58.4998" cy="43.2686" fill="#61b2e4" r="3"/><rect fill="#f4aa41" height="6" rx="1" transform="matrix(.8660254 -.5 .5 .8660254 -20.2798 22.8507)" width="7" x="29" y="46.2679"/><rect fill="#b1cc33" height="6" rx="1" transform="matrix(-.00000175 1 -1 -.00000175 54 26)" width="7" x="10.5" y="37"/><path d="m33.5 22v-2a1 1 0 0 1 1-1h3a1 1 0 0 1 1 1v2h3v-3.8a2.2 2.2 0 0 0 -2.2-2.2h-6.6a2.2 2.2 0 0 0 -2.2 2.2v3.8z" fill="#a57939"/><g fill="none" stroke="#000" stroke-width="2"><path d="m33.5 22v-2a1 1 0 0 1 1-1h3a1 1 0 0 1 1 1v2h3v-3.8a2.2 2.2 0 0 0 -2.2-2.2h-6.6a2.2 2.2 0 0 0 -2.2 2.2v3.8z" stroke-linejoin="round"/><path d="m53 56h7a3 3 0 0 0 3-3v-28a3 3 0 0 0 -3-3h-7" stroke-miterlimit="10"/><path d="m19 22h-7a3 3 0 0 0 -3 3v28a3 3 0 0 0 3 3h7" stroke-miterlimit="10"/><path d="m40.067 40.75-1.732-1 2-3.464 3.031 1.75" stroke-linecap="round" stroke-linejoin="round"/><path d="m31.5 32a2 2 0 1 1 -2-3.4635" stroke-linecap="round" stroke-miterlimit="10"/><path d="m57.5 41.5365a2 2 0 1 1 2 3.4641" stroke-linecap="round" stroke-miterlimit="10"/><path d="m31.067 47.786-1.732 1 2 3.464 3.031-1.75" stroke-linecap="round" stroke-linejoin="round"/><path d="m12 39.5v-2h4v3.5" stroke-linecap="round" stroke-linejoin="round"/><rect height="38" rx="1" stroke-miterlimit="10" width="4" x="19" y="20"/><rect height="38" rx="1" stroke-miterlimit="10" width="4" x="49" y="20"/><path d="m23 22h26" stroke-miterlimit="10"/><path d="m49 56h-26" stroke-miterlimit="10"/></g></svg>